<svg id="Capa_1" data-name="Capa 1" xmlns="http://www.w3.org/2000/svg" viewBox="0 0 29.49 44.78"><defs><style>.cls-1{fill:#606060;fill-rule:evenodd;}</style></defs><title>aaaMesa de trabajo 20-</title><polygon class="cls-1" points="2.25 15.07 2.34 14.94 2.39 14.94 2.48 14.94 2.52 14.94 2.61 14.94 2.66 14.98 2.75 14.98 2.84 15.03 2.97 15.07 3.02 15.07 3.02 14.98 3.02 14.94 3.02 14.8 3.02 14.76 3.02 14.67 3.02 14.62 3.02 14.31 2.97 13.68 2.84 13.32 2.79 13.27 2.79 13.18 2.84 13.09 2.79 13.05 2.84 13 2.84 12.91 2.88 12.82 2.84 12.73 2.79 12.6 2.79 12.51 2.75 12.42 2.75 12.37 2.75 12.33 2.7 12.28 2.66 12.24 2.66 12.19 2.66 12.15 2.66 12.1 2.66 12.01 2.66 11.97 2.61 11.88 2.61 11.83 2.61 11.74 2.57 11.7 2.57 11.65 2.61 11.61 2.66 11.61 2.66 11.56 2.75 11.47 2.88 11.47 3.02 11.43 3.02 11.34 3.02 11.29 2.97 11.24 2.93 11.2 2.93 11.15 2.93 11.11 2.93 11.02 2.88 10.97 2.84 10.93 2.84 10.84 2.88 10.75 2.88 10.71 2.93 10.71 2.88 10.62 2.88 10.57 2.84 10.44 2.84 10.39 2.79 10.3 2.79 10.21 2.84 10.12 2.88 9.76 2.97 9.62 3.02 9.44 3.06 9.35 3.11 9.31 3.15 9.26 3.24 9.17 3.29 9.13 3.33 9.04 3.24 8.72 3.2 8.68 3.2 8.63 3.15 8.5 3.11 8.45 2.97 8.27 2.84 8.09 2.7 8.14 2.66 8.14 2.66 7.96 2.48 8 2.34 8 2.3 8.05 2.16 8.05 2.12 7.82 2.12 7.73 1.98 7.19 1.67 6.16 1.67 6.11 1.57 5.89 1.44 5.71 1.4 5.48 1.4 5.21 1.4 5.03 1.53 4.63 1.53 4.36 1.4 4.13 1.26 3.95 1.22 3.59 1.3 3.55 1.4 3.55 1.57 3.5 1.67 3.37 1.94 3.5 2.07 3.37 2.12 3.37 2.12 3.32 2.7 2.96 3.33 2.56 4.05 2.11 4.41 1.84 4.46 1.84 4.41 1.48 4.64 1.16 5.18 0.67 6.08 0.13 6.39 0.13 6.62 0.48 6.71 0.76 6.89 1.48 7.25 1.48 7.52 1.43 7.7 1.43 7.79 2.24 7.88 2.69 8.73 2.92 9.28 2.69 9.86 2.83 9.81 4.04 10.4 3.77 11.12 3.46 11.53 3.1 11.98 3.28 12.16 4.09 12.47 4.58 12.65 5.35 13.19 5.53 13.6 6.47 13.01 6.16 12.56 5.84 12.07 6.56 12.02 7.1 12.74 6.92 13.28 7.15 12.97 7.28 12.07 7.96 12.2 8.63 12.61 9.35 13.15 9.71 13.82 10.21 14.41 11.2 14.63 12.64 15.62 12.55 16.03 12.37 16.34 12.55 16.7 12.37 17.43 12.01 17.47 11.74 18.05 12.51 18.41 13.36 19 13.77 19.81 13.81 20.49 14.08 20.71 14.98 20.98 15.75 21.25 16.78 21.93 17.64 22.96 17.59 23.86 17.77 24.72 17.68 25.03 18.18 25.98 19.44 25.35 19.21 24.72 18.94 24.13 19.03 24.04 19.53 24.04 20.7 22.87 21.38 22.65 22.23 22.78 22.91 23.86 23 26.3 23.45 26.93 24.39 27.42 25.11 28.82 26.24 28.95 27.5 28.86 28.13 27.29 27.54 26.39 27.99 25.3 28.26 25.21 28.94 25.57 29.93 26.02 30.33 26.61 31.23 26.66 31.86 27.6 32.54 27.87 33.22 27.69 34.03 27.96 34.93 28.68 35.83 29.22 37 29.36 37.72 29.18 38.03 28.77 38.17 28.46 38.44 28.5 38.84 27.56 38.84 26.7 38.62 24.9 38.66 24.67 38.48 23.68 38.48 23.28 38.71 22.78 38.8 21.21 38.89 21.03 39.25 20.85 40.37 20.44 41.32 21.79 41.55 22.33 41.32 22.83 41.5 23.28 41.81 23.5 41.95 23.14 42.9 22.6 43.21 21.97 43.66 21.21 44.16 20.71 44.65 20.35 44.65 18.82 44.02 16.16 42.72 15.85 42.49 15.53 41.86 15.67 40.87 15.98 40.15 16.57 39.65 16.66 38.98 16.34 38.35 15.62 37.81 14.32 37.4 13.06 37.13 11.8 36.59 11.48 36.86 11.44 37.58 11.21 38.03 11.17 39.61 11.17 39.92 10.67 39.97 10.18 39.16 9.14 38.3 8.28 36.86 7.2 35.83 7.07 35.2 6.12 34.97 5.27 34.61 4.95 32.63 4.73 30.74 4.37 30.33 4.46 28.85 4.01 28.49 3.6 27.81 2.93 26.82 2.61 25.74 2.25 25.25 1.89 25.02 1.57 24.48 1.22 23.81 1.17 22.27 1.03 21.87 0.27 20.3 0.13 19.66 0.72 18.9 1.17 18.58 1.4 18 1.22 16.65 1.4 16.24 1.98 16.15 2.25 15.93 2.25 15.07"/></svg>