<svg id="Capa_1" data-name="Capa 1" xmlns="http://www.w3.org/2000/svg" viewBox="0 0 12.27 9.2"><defs><style>.cls-1{fill:#606060;}</style></defs><title>aaaMesa de trabajo 66-</title><path class="cls-1" d="M4.9.51,4.77.77l-.26.39-.39.14-.27-.14H3.46L3.06,1H2.67L1.75.51,1.62.64v.92l-.14.13V2l-.13.14v.13l-.13.26v.13l-.13.13v.4L1,3.27l-.13.26v.14L.69,3.8l-.13.26-.13.13-.26.13.39.79.27.4.26.13.39.13L1.75,6l.13.27L2,6.69l.13.4v.39l.26.27L2.8,8l.13.26.79.79.4-.13.26-.13.26-.27.26-.26.27-.39.26-.27.4-.13h.26l.39-.13.4.13.26-.13.4-.26L7.8,7l.4-.14.26-.26V6.17L8.33,5.9,8.2,5.51l-.14-.27h.79l.4-.13h.39l.27-.26.26-.26.13-.27h.4l.26.27.26.13h.4l.26-.27.26-.13V3.67L11.88,3l-.26-.4-.13-.26L11.22,2l-.66-.39-.39-.13-.4-.13-.26.13-.39.13-.4.13-.26-.26A9.38,9.38,0,0,1,5.3.24L5,.11"/></svg>