<svg id="Capa_1" data-name="Capa 1" xmlns="http://www.w3.org/2000/svg" viewBox="0 0 38.94 25.41"><defs><style>.cls-1{fill:#606060;}</style></defs><title>aaaMesa de trabajo 41-</title><polyline class="cls-1" points="20.52 0.12 19.6 0.51 17.1 1.17 16.05 1.96 14.73 3.27 14.08 3.67 13.42 4.06 12.76 4.2 11.97 4.2 10.65 3.54 10.26 3.4 9.6 3.4 7.23 4.06 6.18 4.59 5.52 4.98 5.39 5.25 5.26 5.64 5.39 6.43 6.44 8.54 6.71 9.33 6.71 9.59 6.18 10.64 6.18 11.96 6.31 12.49 6.31 14.86 6.18 15.12 5.92 15.12 4.47 16.96 2.89 16.96 1.97 16.83 1.7 16.83 1.05 17.22 0.78 17.22 0.13 17.75 0.13 18.15 3.55 22.09 3.81 21.7 5 21.04 5.65 20.91 6.18 20.78 6.97 20.25 7.76 19.99 8.15 19.86 8.55 19.99 8.94 20.12 9.47 20.38 9.86 20.91 10.26 21.3 10.79 21.57 11.44 21.7 12.23 21.7 13.29 21.3 13.68 21.3 13.94 21.44 14.34 21.57 15 22.36 15.39 22.75 15.65 22.88 16.18 22.75 17.23 22.09 17.89 21.7 18.42 21.57 19.08 21.44 20 21.3 20.08 21.32 20.13 21.3 24.08 21.83 25.52 22.09 26.84 22.62 27.5 23.02 29.87 23.02 30.66 23.15 31.32 23.28 31.71 23.67 32.1 23.94 33.29 24.6 33.95 25.25 34.61 24.86 35 24.33 35.66 24.07 36.18 23.94 37.1 22.75 37.76 21.44 38.82 18.02 38.82 17.88 38.69 17.62 38.29 17.36 37.24 16.96 36.58 16.43 36.45 16.17 35.4 15.12 34.74 14.33 34.34 13.54 34.08 13.01 33.68 12.22 32.89 11.3 32.1 10.91 31.18 10.25 29.74 9.2 29.08 8.54 28.68 8.01 28.68 7.62 28.55 6.7 28.68 4.06 28.42 3.8 27.76 3.67 26.58 2.75 26.45 3.27 25 5.91 24.34 6.7 24.08 6.83 23.95 6.83 23.81 6.7 21.71 4.33 21.05 3.93 19.6 3.14 19.47 2.88 19.6 2.75 20.66 0.77 20.79 0.25 20.66 0.12"/></svg>