<svg id="Capa_1" data-name="Capa 1" xmlns="http://www.w3.org/2000/svg" viewBox="0 0 13.41 17.01"><defs><style>.cls-1{fill:#606060;}</style></defs><title>aaaMesa de trabajo 5-</title><path class="cls-1" d="M12.63.17,12.36.3V.17h-.52v.4H12V.83h.13V1h-.92l-.13.13h-.13v.14h-.14v.13h-.26v.13h-.13l-.13-.13h-.13V1.23H10V1.09H9.86V1H9.6V.83H9.34V.7H9.07V.57H8.81V.44H8.42V.3L8.28.44H8V.83H7.76v0H7.49L7.36,1H7.23v.27H7.1v.26h.13v.39H6.84L6.7,2v.13H6.57v.26H6.31V2.15H6.18V1.88l-.13-.13V1.62H5.78V1.49H5.52V1.36H4.86v.13H4.47v.13h-.4v.13H3.94v.13H3.68V2H3.55v.52l-.27.13H3V2.8H2.89v.66H2.63v.13H2.49l-.13.14H2.23v.13H2V4H1.84v.13H1.7v.13H1.57v.26H1.44v.14H1.18v.13H.91v.13H.78v.66H.91V5.7l.14.13V6h.13v.27h.26v.13h.13v.13H1.7l.14.13H2v.13H2.1V7.94h.13v.13h.13v.26h.13v.4H2.23L2.1,8.6H1.84V8.46H1.31V8.33h-1V8.6H.13v.52H.78v.13H.91v.13h.27l.13.14h.26l.13.13h.4l.13.13h.4v.13h.26L3,10h.26l1.32.53v.26l.13.13v.53l.13.13v1.45H4.73v.79h.13V14H5v.13h.14v.14h.13v.13h.13v.52h.13v.4h.13v.26l.13.13v.13h.13v.27h.14v.13l.13.13v.13h.13v.13h.13v.14h.4l.13.13h.26l.13-.13h.13v-.14h.27V15.57h.13v-.26H7.76v-.79h.13v-.26H8V14h.13v-.13h.13v-.13h.14V13.6h.13v-.13h.13v-.14h.13V13.2h.13v-.13h.13v-.13H9.2v-.13h.14v-.27h.13v-.13H9.6v-.13h.13v-.13h.13V12H10v-.13h.14l.13-.14v-.13h.13v-.13h.13v-.13h.13v-.13h.13V11.1h.14l.13-.14v-.13h.26V10.7h.13v-.13h.27v-.13h.13v-.13H12V10h.13V9.78h.13V9.25h.13l.27-1.18.39-2L12.5,3.73,13.15,1l.13-.13V.57L13.15.44h-.26L12.76.3"/></svg>