<svg id="Capa_1" data-name="Capa 1" xmlns="http://www.w3.org/2000/svg" viewBox="0 0 20.31 10.36"><defs><style>.cls-1{fill:#606060;fill-rule:evenodd;}</style></defs><title>aaaMesa de trabajo 23-</title><polygon class="cls-1" points="19.25 1.42 19.33 2.23 19.29 2.96 19.21 3.48 19.25 3.73 19.37 4.17 19.41 4.45 19.61 4.74 19.81 4.98 19.97 5.26 20.01 5.3 19.97 5.34 19.97 5.38 19.97 5.46 20.01 5.55 20.05 5.59 20.14 5.75 20.14 5.79 20.14 5.83 20.18 5.91 20.14 6.03 20.09 6.11 20.05 6.15 20.01 6.19 19.89 6.27 19.85 6.31 19.81 6.35 19.81 6.39 19.73 6.52 19.69 6.6 19.65 6.68 19.61 6.72 19.53 6.72 19.41 6.76 19.37 6.76 19.29 6.76 19.17 6.8 19.13 6.8 19.09 6.8 19.09 6.84 19 6.84 18.96 6.92 18.84 7 18.76 7.04 18.68 7.08 18.52 7.12 18.44 7.16 18.16 7.2 18.07 7.2 18.03 7.24 17.99 7.28 17.91 7.37 17.87 7.37 17.79 7.41 17.75 7.41 17.71 7.41 17.63 7.41 17.47 7.37 17.27 7.32 17.18 7.32 17.14 7.32 17.1 7.32 17.02 7.37 16.9 7.37 16.82 7.37 16.74 7.37 16.58 7.32 16.42 7.28 16.38 7.28 16.17 7.2 16.01 7.16 15.89 7.16 15.89 7.12 15.73 7.12 15.69 7.12 15.61 7.08 15.57 7.12 15.41 7.12 14.96 7.24 14.88 7.24 14.84 7.28 14.8 7.32 14.8 7.37 14.76 7.49 14.68 7.73 14.64 7.81 14.56 8.01 14.52 8.05 14.48 8.13 14.44 8.17 14.36 8.21 14.03 8.29 13.95 8.34 13.83 8.42 13.71 8.5 13.51 8.58 13.34 8.58 13.26 8.58 13.14 8.54 12.94 8.46 12.78 8.34 12.7 8.29 12.66 8.25 12.58 8.25 12.54 8.25 12.5 8.29 12.46 8.29 12.41 8.25 12.33 8.25 11.93 8.25 11.93 8.17 11.97 8.13 12.05 7.89 12.09 7.85 12.13 7.81 12.09 7.81 12.05 7.77 11.97 7.73 12.01 7.49 11.93 7.32 11.77 6.72 11.57 6.19 11.48 6.23 11 6.35 10.76 6.39 10.15 6.47 10.15 6.56 9.95 7.28 9.95 7.93 9.79 7.93 9.71 8.29 9.54 8.9 9.63 9.14 10.11 9.35 10.47 9.27 10.72 9.3 10.64 9.43 10.64 9.47 10.64 9.51 10.64 9.55 10.6 9.63 10.47 9.67 10.19 9.75 9.67 10.07 9.59 10.11 9.5 10.11 9.38 10.11 9.3 10.03 9.18 9.95 9.1 9.91 9.06 9.91 9.02 9.91 8.98 9.91 8.94 9.95 8.9 9.99 8.9 10.03 8.82 10.23 8.82 10.28 8.82 10.23 8.78 10.23 8.82 10.11 8.82 9.91 8.82 9.83 8.78 9.59 8.78 9.55 8.74 9.55 8.65 9.51 8.57 9.47 8.53 9.43 8.49 9.47 8.45 9.47 8.45 9.43 8.37 9.43 8.33 9.43 8.29 9.39 8.25 9.39 8.21 9.35 8.17 9.3 8.13 9.3 8.09 9.35 8.05 9.35 8.01 9.35 7.97 9.35 7.97 9.3 7.93 9.3 7.93 9.27 7.89 9.3 7.85 9.27 7.85 9.22 7.85 9.18 7.89 9.14 7.93 9.14 7.97 9.18 7.97 9.14 8.01 9.14 8.05 9.1 8.01 9.06 8.05 9.06 8.05 9.02 8.09 8.98 8.13 8.98 8.17 8.98 8.21 8.98 8.25 8.98 8.29 8.94 8.33 8.9 8.33 8.86 8.33 8.82 8.33 8.78 8.37 8.74 8.41 8.7 8.41 8.66 8.41 8.62 8.41 8.58 8.41 8.54 8.45 8.5 8.45 8.46 8.45 8.42 8.41 8.42 8.41 8.38 8.41 8.34 8.41 8.29 8.41 8.25 8.41 8.21 8.37 8.17 8.33 8.17 8.33 8.13 8.33 8.09 8.37 8.05 8.41 8.05 8.41 8.01 8.45 8.01 8.41 7.97 8.41 7.93 8.41 7.89 8.45 7.89 8.49 7.85 8.53 7.85 8.57 7.81 8.62 7.81 8.65 7.81 8.65 7.77 8.62 7.77 8.62 7.73 8.57 7.73 8.53 7.69 8.53 7.65 8.57 7.65 8.62 7.61 8.62 7.57 8.65 7.61 8.7 7.65 8.74 7.65 8.78 7.57 8.78 7.53 8.82 7.45 8.82 7.41 8.86 7.41 8.9 7.37 8.9 7.32 8.9 7.28 8.9 7.24 8.94 7.2 8.98 7.16 8.94 7.08 8.98 7.08 9.06 7.08 9.18 7.08 9.3 7.08 9.38 7.08 9.46 7.08 9.63 7.08 9.67 7.04 9.67 7 9.67 6.92 9.67 6.88 9.67 6.76 9.63 6.64 9.63 6.52 9.71 6.47 9.71 6.39 9.75 6.35 9.75 6.31 9.79 6.31 9.83 6.27 9.87 6.19 9.83 6.11 9.83 6.07 9.79 6.03 9.75 5.99 9.87 5.95 9.95 5.95 10.07 5.99 10.11 5.99 10.27 5.99 10.43 5.99 10.47 5.99 10.55 5.99 10.72 5.99 10.88 5.95 10.84 5.91 10.76 5.83 10.76 5.75 10.76 5.71 10.76 5.67 10.76 5.63 10.76 5.59 10.72 5.55 10.68 5.55 10.72 5.55 10.72 5.5 10.88 5.46 10.92 5.42 11 5.34 11.08 5.26 11.12 5.22 11.12 5.14 11.12 5.06 11.08 5.02 11.08 4.98 11 4.9 10.88 4.82 10.8 4.78 10.72 4.74 10.68 4.74 10.55 4.78 10.43 4.82 10.27 4.82 10.15 4.86 9.99 4.86 9.95 4.86 9.91 4.82 9.87 4.78 9.79 4.74 9.75 4.74 9.71 4.74 9.71 4.7 9.67 4.7 9.63 4.74 9.59 4.74 9.5 4.78 9.46 4.82 9.42 4.82 9.34 4.82 9.34 4.78 9.3 4.78 9.3 4.82 9.26 4.82 9.26 4.78 9.22 4.78 9.22 4.82 9.18 4.82 9.14 4.82 9.14 4.78 9.1 4.78 9.1 4.82 9.06 4.86 9.06 4.9 9.02 4.94 9.02 4.98 8.98 5.02 8.98 5.06 8.98 5.1 9.02 5.14 9.02 5.18 9.06 5.18 9.06 5.22 9.14 5.22 9.22 5.22 9.26 5.22 9.3 5.22 9.3 5.3 9.34 5.38 9.38 5.42 9.38 5.46 9.38 5.5 9.34 5.59 9.26 5.55 9.22 5.55 9.18 5.55 9.14 5.55 9.1 5.59 8.94 5.71 8.82 5.79 8.78 5.87 8.7 5.99 8.65 6.03 8.62 6.07 8.53 6.11 8.49 6.11 8.41 6.11 8.33 6.11 8.25 6.11 8.21 6.11 8.13 6.15 7.97 6.19 7.97 6.23 7.93 6.23 7.93 6.27 7.89 6.27 7.77 6.27 7.73 6.23 7.64 6.19 7.6 6.15 7.6 6.19 7.6 6.27 7.6 6.31 7.56 6.31 7.56 6.35 7.52 6.35 7.4 6.39 7.4 6.43 7.4 6.47 7.4 6.56 7.4 6.6 7.44 6.6 7.44 6.72 7.44 6.76 7.36 6.8 7.32 6.84 7.28 6.84 7.32 6.88 7.32 6.92 7.36 6.92 7.36 6.96 7.32 6.96 7.32 7 7.28 7.16 7.28 7.24 7.24 7.28 7.2 7.37 7.2 7.41 7.16 7.41 7.12 7.45 7.08 7.45 7 7.41 6.92 7.37 6.88 7.32 6.84 7.28 6.8 7.28 6.71 7.37 6.71 7.41 6.67 7.49 6.67 7.53 6.63 7.61 6.59 7.65 6.55 7.69 6.43 7.69 6.35 7.69 6.31 7.69 6.23 7.73 6.19 7.81 6.15 7.81 6.11 7.97 6.07 8.01 6.03 8.05 5.99 8.09 5.75 8.25 5.5 8.46 5.42 8.5 5.34 8.58 5.34 8.62 5.34 8.7 5.38 8.74 5.5 8.82 5.54 8.86 5.58 8.9 5.58 8.98 5.54 9.02 5.54 9.06 5.46 9.1 5.42 9.14 5.38 9.14 5.34 9.1 5.3 9.06 5.3 9.02 5.3 8.98 5.26 8.98 5.26 8.94 5.22 8.94 5.22 8.9 5.18 8.9 5.18 8.86 5.14 8.86 5.1 8.82 5.06 8.82 5.06 8.78 5.06 8.74 5.02 8.74 5.02 8.7 5.02 8.66 5.02 8.62 5.02 8.58 4.98 8.54 4.98 8.5 4.98 8.46 4.94 8.46 4.94 8.42 4.9 8.38 4.9 8.34 4.86 8.34 4.86 8.29 4.86 8.25 4.86 8.21 4.82 8.21 4.82 8.17 4.82 8.13 4.82 8.09 4.82 8.05 4.82 8.01 4.82 7.97 4.78 7.93 4.73 7.89 4.73 7.85 4.69 7.81 4.69 7.77 4.65 7.73 4.61 7.65 4.57 7.65 4.53 7.69 4.53 7.73 4.49 7.73 4.49 7.77 4.49 7.81 4.41 7.85 4.33 7.89 4.29 7.89 4.17 8.01 4.09 8.05 4.01 8.09 3.76 8.09 3.64 8.13 3.6 8.13 3.52 8.13 3.32 8.13 3.28 8.13 3.24 8.17 3.2 8.21 3.2 8.29 3.2 8.38 3.24 8.42 3.24 8.58 3.28 8.66 3.32 8.78 3.36 8.86 3.44 8.9 3.48 8.94 3.52 9.02 3.52 9.1 3.52 9.14 3.48 9.18 3.4 9.27 3.36 9.3 3.4 9.35 3.44 9.39 3.48 9.39 3.52 9.39 3.52 9.43 3.56 9.43 3.6 9.55 3.56 9.59 3.44 9.67 3.28 9.79 3.16 9.87 3.12 9.91 3.12 9.95 3.12 9.99 3.08 9.99 3.08 10.03 3.04 10.03 3 10.03 2.96 9.75 2.92 9.63 2.71 9.47 2.67 9.47 2.63 9.43 2.59 9.43 2.51 9.35 2.47 9.3 2.35 9.27 2.23 9.14 1.99 8.98 1.95 8.98 1.91 8.94 1.82 8.9 1.78 8.86 1.74 8.86 1.58 8.82 1.46 8.82 1.3 8.82 1.26 8.74 1.22 8.66 1.14 8.62 1.01 8.58 0.93 8.58 0.85 8.58 0.73 8.54 0.69 8.54 0.69 8.5 0.69 8.46 0.69 8.42 0.65 8.38 0.65 8.34 0.65 8.29 0.61 8.29 0.61 8.25 0.61 8.21 0.57 8.17 0.57 8.13 0.57 8.09 0.57 8.05 0.61 8.05 0.61 8.01 0.65 7.97 0.65 7.93 0.61 7.93 0.61 7.89 0.61 7.85 0.57 7.81 0.53 7.81 0.53 7.65 0.53 7.41 0.41 7.04 0.29 6.76 0.29 6.72 0.29 6.68 0.25 6.68 0.21 6.6 0.13 6.15 0.17 5.63 0.29 5.42 0.49 5.02 0.61 4.78 0.65 4.66 0.69 4.5 0.73 4.05 0.89 3.81 1.22 3.56 1.46 3.4 1.62 2.96 1.62 2.67 1.74 2.47 1.91 2.31 1.95 2.35 2.07 2.47 2.11 2.6 2.11 2.76 2.19 3.08 2.31 3.16 2.51 3.16 2.71 3.12 2.88 3.04 3.08 2.92 3.36 2.8 3.56 2.8 3.72 2.8 3.8 2.8 3.93 2.67 4.09 2.55 4.17 2.31 4.37 2.19 4.49 2.03 4.61 1.95 4.69 1.99 4.78 2.07 4.86 2.19 5.1 2.43 5.38 2.43 5.5 2.39 5.87 2.27 5.95 2.23 6.23 2.15 6.35 2.19 6.51 2.27 6.67 2.27 7.16 2.35 7.4 2.35 7.56 2.31 7.73 2.27 7.93 2.11 8.05 1.99 8.49 1.99 8.78 1.87 9.26 1.83 9.67 1.71 9.95 1.62 10.47 1.62 10.76 1.75 11.16 1.71 11.32 1.54 11.32 1.42 11.2 1.14 11.08 1.02 10.84 0.65 10.84 0.45 10.84 0.37 10.88 0.17 10.96 0.13 11.28 0.17 11.48 0.21 11.77 0.25 12.13 0.29 12.37 0.37 12.5 0.41 12.54 0.53 12.58 0.65 12.58 0.78 12.7 0.86 12.86 0.86 13.26 0.86 13.55 0.94 13.75 1.02 13.95 1.06 14.19 1.1 14.31 1.02 14.44 0.86 14.64 0.57 14.84 0.49 14.92 0.49 15.04 0.41 15.16 0.33 15.24 0.33 15.32 0.41 15.45 0.45 15.61 0.53 15.97 0.49 16.13 0.49 16.25 0.53 16.46 0.53 16.78 0.57 16.94 0.61 17.14 0.73 17.27 0.78 17.43 0.86 17.83 1.14 17.91 1.18 18.03 1.18 18.16 1.18 18.4 1.18 18.48 1.26 18.6 1.3 18.72 1.34 18.84 1.38 19.13 1.46 19.25 1.42"/></svg>