<svg id="Capa_1" data-name="Capa 1" xmlns="http://www.w3.org/2000/svg" viewBox="0 0 10.38 19.3"><defs><style>.cls-1{fill:#606060;}</style></defs><title>aaaMesa de trabajo 34-</title><path class="cls-1" d="M5.65.22H5.52V1.67l-.13.13v.39H5.26v.4H5.13V3H5v.27H4.86v.26H4.73v.26H4.6V3.9H4.47V4l-.13.13L4.2,4.3l-.13.13H3.94v.13H3.81v.13H3.68v.14L3.55,5l-.27.26-.13.13v.13H3v.14H2.89v.13H2.76v.13H2.63V6H2.49v.26H2.36v.27H2.23V6.8H2.1v.26H2v.4H1.83v.26H1.7v.4l-.13.13v.26H1.44v.13H1.31v.27H1.18v.26H1.05v.39H.91v.27H.78v.26H.65v.26l.26-.26L1.18,10h.13l.26-.13L1.7,10v.13l.27.26-.14.14.14.13-.4.26.13.26H1.57L1.44,11v.13l-.26.27H1.05l-.14.13-.26.13H.39v.26H.26v.13H.13v.79H.26v.27l.13.13H.91v.13l.14.13h.26v-.26h.26l.13-.13h.4l.39.39H2.23l-.13.13.13.14v.13h.13v.26H2.1L2,14.3v.27H2.1v.13h.13v.66l.13-.14h.4l-.13.14v.26l.13.13v.53l-.13.26v1.18l-.27-.13H2v.13c-.37.31-.14.5-.66.92l-.13.14.13.13h.13l.13.13.13.13h.93V19h.26v-.13h.39v-.13h.14v-.14h.13v-.26h.13v-.26L3.81,18l.13-.13h.13v-.14h.79v-.13h.27v-.13h.13v-.13h.13l.13.13.13.13h.4v-.13h.13v0h.26l.13-.13H7.76v.13H8l-.13-.26v-.13H7.76v-.14l-.13-.13v-.26H7.49v-.4L7.63,16v-.26H7.49v-.13l-.13-.13H7.23v-.13H7.1v-.14H6.7v-.39H6.57V14.3H6.7v-.13H7V14H7.1v.13h.53v.13h.79V14h.13v-.26h.13l.13-.14h.13v-.13l.13-.13h.14v-.13h.13v-.13h.13v-.53l-.13-.13H9.21V12.2h.13v-.27h-.4l-.13-.13v-.53H8.68V11l-.13-.13v-.26h.13V9.83h.13V9.56h.13V9.3l.13-.13V9l.14-.13h.26l.13-.14V7.59l.13-.13V7.19l.13-.13V6.8H10V6.54l.14-.14V6.14h.13V5.88l-.13-.13L10,5.62H9.86V5.48H9.73V5.35H9.6V5.22H9.47V5.09H9.21V5H8.94V4.83H8.68V4.69H8.55V3.77l-.13-.13H8l-.13-.13V3.38l-.13-.13V3.11H7.63V3H7.1V2.85H7V2.72H6.84V2.59L6.7,2.46V2.19H6.57V1.4H6.44V1L6.31.88V.75H6.18V.48H6.05L5.91.35,5.65.09"/></svg>