<svg id="Capa_1" data-name="Capa 1" xmlns="http://www.w3.org/2000/svg" viewBox="0 0 58.69 52.62"><defs><style>.cls-1{fill:#606060;}</style></defs><title>aaaMesa de trabajo 20-</title><path class="cls-1" d="M22.24.24,22,.37l-.26.79-.13.66-.27.79L20.27,4.19l-.13.39-.66.92L19,6.56l-.39.92V8l-.13.93v.65L17.9,10.9l-.26.53-.66.65-.53.4-.52.26-.92.53-.4.13-.66.53-.92.66-.39.13-.66.13-.79.13-.53-.13h-.39l-.53-.13-1.05-.27-.26-.26L7.5,15.51l-.13.79v.39l.13.79V18l-.26.92-.13.53L7,20.11v.53c-.4,1-.31,2.3-1.19,3l-.52.13H4.48L4,23.67l-.66-.13H2.64l-.4.13L2,23.93v.4l-.27.52C.59,26.08.71,25.36.4,27.09l-.13.39v.4L.4,28l.52-.13.66-.13.53-.13H2.9l.39.13.13.13.14.39v.66l-.14.26c-.16,2.49.77.73-.78,3.16l-.27.4-.26.52-1.84.14,1.58,1.71.92.26.52.13.4.27L4,36.3l-.13.92-.13.66.52,1,.4.53.79.92.92,1.06.53.65.52,1.19.27.39L8,44.2l.53.66.13.39V46l.13.79.13.53L8.82,48l.26.52v1.19l.14.79.26.52h.13l.26.13H10l.93.53h.79l.52-.26.13-.13.14-.27.52-.26.53-.13h.26l.26.13h.27l.56.23.23,0,1.05.13h.53c2.19.59,1.2,1.21,3.29.93h.65l.53.13.66.13.26.13h.53l.66-.26.92-.66.66-.79.92-.92.52-.53.92-.79.27-.26.26-.39.13-.14H28l.79-.52c2.92-.21,1.26-.54,2.9-.66h1.45l2.5.26a23.19,23.19,0,0,0,3.29.92h.26l.66-.13c1.6-.39,1.26-.62,3-.53H43l.92.14.26.13.13.13.27-.13h.13l.39-.4.66-.26,1.05-.4.79-.52.79-.27.92-.39,1.19-.66.92-.39,1.18-.53L54,43.28h.66l.79.39.92.27,2.24,1.44v-.26L58,43.67l-.39-.52-.4-.4-.79-.39-.39-.27-.53-.39L55,41.3l-.26-.52-.4-.79-.52-.79-.53-.92-.13-.53L53,37.22l-.26-.92V36l.13-.26.13-.14h.39l.27-.13.79-.13.65-.26L55.8,35l.79-.14.4-.13v-.26l-.13-.13-.4-.27-.39-.13-.53-1.18-.13-.53-.27-.66.14-.92.39-1.31.26-.79.27-.66.26-.79.26-.53L57,26.3l.13-.13.39-.13.14-.27-.14-.13-.13-.26-.26-.13-.66-.4-.39-.39-.4-.4-.53-.79L55,22.48l-.13-1.05.13-.66.13-.79.53-.66.53-.52.26-.79H56.2l-1.45-.53h-.13l-1-.44-.66-.22-.52-.41-.8-.51-.26-.26-.79-.27-.66.14-.26.26-.79.53-.53.26-.52.13-.05,0-.09,0-.26-.13-.26-.13L47,16.3l-.14-.14-.79-.52-.52-.4h-.27l-.13.53v.79l-.13.13,0,0-.08,0-.26-.26-.13-.53-.14-.39v-.66l.14-.4v-1l-.66-.79-.4-.26c-1.18-.4-1.1-1.52-1.45-2.5l-.52-.27-.53-.26L40.8,8.14V8l-.26-.26-.66-.26h-.4L39,7.74,37.9,8.4l-.13.13L37,9.06l-.65.26-.09,0-.05,0L35,9.06l-1.19-.53L33,8.27,32,7.22V6.56l.13-.66V5.5h-.79l-.52-.26-.13-.53.39-.65-.26-.14-.09-.17-.18-.09-.65-.26-.79-.27-.53-.65-.13.65-.13.53v.26l-.27.4-.39.13-.4-.13-.78-.4-.4-.13L25.4,3.4C24.34,2.5,25.11,2.28,24,1L23.43.5,22.77.11"/></svg>